<svg xml:space="preserve" style="enable-background:new 0 0 1200 300;" y="0px" x="0px" xmlns:xlink="http://www.w3.org/1999/xlink" xmlns="http://www.w3.org/2000/svg" id="Layer_1" version="1.1" viewBox="99.63 25.18 1000.05 251.87">
<style type="text/css">
	.st0{fill:url(#SVGID_1_);}
	.st1{fill:url(#SVGID_00000087379117451657816390000010556328243231025554_);}
	.st2{fill:#232C54;}
	.st3{fill:#0A8468;}
</style>
<g>
	<g id="Logo">
		<linearGradient y2="105.9631" x2="344.4186" y1="231.2301" x1="127.4497" gradientUnits="userSpaceOnUse" id="SVGID_1_">
			<stop style="stop-color:#0B8468" offset="0"/>
			<stop style="stop-color:#0C7F67" offset="0.1857"/>
			<stop style="stop-color:#107164" offset="0.402"/>
			<stop style="stop-color:#165A5E" offset="0.6335"/>
			<stop style="stop-color:#1E3957" offset="0.8741"/>
			<stop style="stop-color:#222B54" offset="0.9646"/>
		</linearGradient>
		<path d="M228.04,223.54c-61.73,0-113.28-43.57-125.58-101.64c-1.83,8.63-2.8,17.57-2.8,26.75    c0,70.9,57.48,128.38,128.38,128.38s128.38-57.48,128.38-128.38c0-9.17-0.97-18.12-2.8-26.75    C341.31,179.97,289.77,223.54,228.04,223.54z" class="st0"/>
		
			<linearGradient y2="73.915" x2="292.6984" y1="171.4311" x1="123.7955" gradientUnits="userSpaceOnUse" id="SVGID_00000012437453807611857460000007394644094874284220_">
			<stop style="stop-color:#222B54" offset="0"/>
			<stop style="stop-color:#0B8468" offset="0.9336"/>
		</linearGradient>
		<path d="M300.6,109.02    c-12.84-27.16-40.51-45.96-72.56-45.96c-46.4-0.34-83.22,40.17-80.1,85.05c1.89,40.73,37.18,74.91,77.97,75.4    c-59.3-0.63-111.37-43.61-123.46-101.61c11.2-51.96,57.07-99.77,112.57-96.56C259.42,27.5,301.46,62.37,300.6,109.02z" style="fill:url(#SVGID_00000012437453807611857460000007394644094874284220_);"/>
		<path d="M300.6,109.02c0.29,44.03-36.24,81.56-81.33,81.33c-18.23,0-35.08-6-48.64-16.14    c8.1,5.54,17.88,8.78,28.42,8.78c27.83,0,50.39-22.56,50.39-50.39c0-27.83-22.56-50.39-50.39-50.39    c-15.76,0-29.85,7.25-39.09,18.6c14.17-22.67,39.36-37.75,68.08-37.75C260.09,63.06,287.76,81.85,300.6,109.02z" class="st2"/>
	</g>
	<g id="Text">
		<path d="M394.01,77.53h104.88l-7.17,27.34h-67.68v34.07h58.94l-6.95,27.12h-52v38.32h70.37l7.39,27.34h-107.8V77.53z" class="st2"/>
		<path d="M566.56,142.75c-13.89,0-21.96,8.96-21.96,25.55v63.42h-28.91V118.99h28.01l0.22,18.38    c6.05-12.77,17.93-20.39,33.62-20.39c23.53,0,37.65,16.14,37.65,40.56v74.18h-28.91v-66.79    C586.28,151.71,580.01,142.75,566.56,142.75z" class="st2"/>
		<path d="M716.92,103.98c-23.53,0-55.13,12.1-55.13,49.08c0,38.55,31.15,53.56,60.29,53.56    c12.33,0,25.55-3.81,33.61-8.97v28.46c-6.05,4.26-21.06,8.07-37.65,8.07c-36.53,0-87.18-18.83-87.18-79.34    c0-63.2,54.46-79.34,88.97-79.34c18.15,0,31.37,4.48,37.65,8.97l-7.39,27.79C742.69,107.79,732.16,103.98,716.92,103.98z" class="st2"/>
		<path d="M788.96,67.81L788.96,67.81c9.73,0,17.62,7.89,17.62,17.62v0.81c0,9.73-7.89,17.62-17.62,17.62h0    c-9.73,0-17.62-7.89-17.62-17.62v-0.81C771.34,75.69,779.23,67.81,788.96,67.81z" class="st3"/>
		<rect height="112.73" width="28.91" class="st2" y="118.99" x="774.5"/>
		<path d="M880.05,147.68c-13.67,0-23.08,7.17-23.08,28.24v55.8h-28.91V118.99h27.34l0.22,24.43    c4.93-14.79,14.12-26.22,30.25-26.22c5.15,0,10.31,1.79,13.45,5.15l-5.38,28.91C890.14,149.03,884.98,147.68,880.05,147.68z" class="st2"/>
		<path d="M966.99,142.53c-16.14,0-34.96,8.29-34.96,31.37c0,24.88,18.83,35.41,39.22,35.41    c8.29,0,17.93-2.69,24.43-6.95v25.55c-5.16,3.14-16.14,6.5-28.69,6.5c-27.34,0-64.32-15.01-64.32-58.94    c0-46.39,39.22-58.72,64.77-58.72c13.89,0,23.31,3.14,29.36,7.4l-6.72,24.88C984.03,145.21,975.96,142.53,966.99,142.53z" class="st2"/>
		<path d="M1099.66,231.72h-27.12l-0.22-18.83c-5.15,13-15.01,20.62-29.81,20.62c-22.19,0-36.08-15.46-36.08-33.62    c0-30.93,27.34-34.96,49.98-36.98l14.79-1.35v-2.46c0-11.43-10.98-17.48-26.67-17.48c-11.88,0-23.31,3.14-34.29,9.19l6.95-26.44    c10.98-5.6,22.86-7.4,33.84-7.4c26.22,0,48.63,12.33,48.63,41.46V231.72z M1051.92,210.66c10.31,0,19.28-8.52,19.28-22.41v-7.84    l-15.91,1.57c-13.45,1.34-19.95,5.38-19.95,14.57C1035.33,204.38,1040.49,210.66,1051.92,210.66z" class="st2"/>
	</g>
</g>
</svg>